PathFileType	4	(X/Y/Z)	C:/Users/beibeiliu/ov580/test_trc/User3\sequence.8_training_dense_right.trc
DataRate	CameraRate	NumFrames	NumMarkers	Units	OrigDataRate	OrigDataStartFrame	OrigNumFrames
120	120	12	19	mm	120	1	235
Frame#	Time	ThumbCMC			ThumbMCP			ThumbIP			ThumbTip			IndexMCP			IndexPIP			IndexTip			MiddleMCP			MiddlePIP			MiddleTip			RingMCP			RingPIP			RingTip			PinkyMCP			PinkyPIP			PinkyTip			BackHand1			BackHand2			BackHand3	
		X0	Y0	Z0	X1	Y1	Z1	X2	Y2	Z2	X3	Y3	Z3	X4	Y4	Z4	X5	Y5	Z5	X6	Y6	Z6	X7	Y7	Z7	X8	Y8	Z8	X9	Y9	Z9	X10	Y10	Z10	X11	Y11	Z11	X12	Y12	Z12	X13	Y13	Z13	X14	Y14	Z14	X15	Y15	Z15	X16	Y16	Z16	X17	Y17	Z17	X18	Y18	Z18	
0	0	121.831	-25.6744	41.9105	96.1735	-30.548	19.2749	82.2168	-38.0827	-6.9495	74.8172	-46.5607	-26.6546	137.979	-15.0491	-34.9499	130.98	-18.5346	-63.7917	123.808	-19.3531	-84.1528	167.206	-21.5244	-39.5866	162.959	-24.9858	-68.0666	163.001	-36.3852	-98.8479	181.877	-32.07	-31.8073	185.687	-35.2664	-57.9416	190.366	-44.202	-84.4349	196.572	-47.9138	-16.2982	206.204	-55.584	-36.1128	214.36	-65.0946	-53.9507	181.736	-21.6773	18.357	182.904	-18.1121	49.4931	151.99	-8.51668	33.3394	
1	0.00833333	119.433	-25.3316	37.2886	100.27	-31.9477	20.3535	83.9962	-38.002	-8.32703	71.3903	-45.7091	-24.0184	137.351	-15.7405	-34.6411	129.108	-16.5795	-62.9976	127.175	-21.3665	-87.5675	163.038	-20.1798	-38.6507	161.943	-25.4294	-71.814	162.286	-36.2414	-100.676	179.442	-30.6621	-34.2106	188.681	-36.7423	-54.3807	188.218	-43.957	-83.9942	195.288	-47.8888	-15.8036	206.2	-55.7028	-36.992	210.608	-64.274	-57.8131	180.678	-21.7494	18.5555	182.242	-19.0394	49.1916	151.116	-7.35027	30.4457	
2	0.0166667	118.348	-25.5099	42.8598	100.854	-32.5231	17.9226	82.7879	-37.3984	-7.29209	74.4589	-44.614	-25.5048	137.68	-15.623	-34.7678	128.751	-16.0314	-59.0235	128.355	-20.7622	-84.2392	163.236	-20.027	-43.4794	161.44	-24.9278	-71.1801	162.123	-37.4467	-101.548	181.66	-31.6014	-32.4389	184.431	-35.1725	-54.7382	187.956	-44.8639	-82.3857	196.063	-46.2108	-17.0804	205.185	-55.4838	-34.3918	210.907	-62.4377	-53.8868	181.466	-21.442	17.7046	185.302	-19.0022	46.7765	152.854	-7.60277	32.3416	
3	0.025	117.55	-24.8295	39.8994	98.7082	-31.395	20.5642	83.7138	-36.6918	-8.72932	72.1327	-44.1267	-26.2713	135.806	-14.3582	-32.809	128.709	-16.4288	-63.1927	129.355	-20.8684	-85.9044	166.9	-21.0805	-41.0434	165.051	-26.906	-71.696	163.936	-38.7125	-99.1227	180.705	-29.9685	-34.2234	186.148	-35.8025	-58.6507	186.499	-45.15	-83.0564	195.748	-45.8078	-15.784	203.901	-53.8097	-32.8828	212.35	-63.9167	-57.368	179.448	-18.4472	17.6356	183.232	-20.1448	49.5353	149.153	-7.10323	28.7867	
4	0.0333333	116.691	-23.7536	38.5098	99.8264	-31.504	19.3698	83.3015	-36.4353	-7.29986	73.3264	-44.6581	-27.3114	137.479	-14.4275	-36.6516	128.991	-15.0653	-60.1483	129.562	-21.083	-85.0268	162.327	-19.3477	-38.1647	162.702	-26.9787	-71.5896	161.145	-36.4611	-98.0634	179.262	-31.1647	-29.4185	183.219	-35.3884	-59.4625	186.915	-44.8093	-84.688	196.369	-46.9987	-12.8889	205.435	-53.9545	-37.4468	211.504	-65.0707	-57.4981	179.661	-19.6012	20.8998	186.426	-19.1823	49.5723	154.073	-8.88276	32.7295	
5	0.0416667	117.273	-24.76	37.2994	101.834	-32.5987	18.4015	85.496	-38.0812	-3.53961	74.8093	-45.0297	-24.3033	134.493	-14.4748	-35.0688	132.712	-17.2751	-62.618	123.712	-19.0286	-87.8012	164.605	-20.7597	-38.3503	165.067	-26.7041	-68.1622	160.332	-36.4352	-96.4577	178.825	-30.3853	-33.0034	186.103	-35.5223	-56.108	184.335	-44.1546	-80.9383	198.42	-47.4735	-16.0345	203.339	-52.7087	-34.3925	213.616	-65.0921	-58.5633	183.541	-22.0921	18.228	183.546	-19.7555	46.5896	153.897	-8.98798	28.7128	
6	0.05	119.688	-25.5906	38.5337	98.6897	-30.6316	20.1699	81.2506	-35.9801	-5.85258	71.4528	-44.5595	-23.5736	135.83	-14.5212	-35.0816	127.65	-15.409	-62.3815	128.715	-20.4055	-86.1977	162.178	-18.8962	-39.5402	162.363	-25.6568	-68.2621	160.16	-37.2858	-98.0586	182.844	-30.9271	-32.2539	186.831	-35.913	-56.1044	187.277	-45.3021	-80.7069	195.3	-46.3468	-13.9018	206.538	-55.7225	-35.587	212.766	-65.673	-58.6597	180.681	-19.2906	21.0815	181.531	-18.7616	48.9782	151.82	-8.36359	29.638	
7	0.0583333	118.614	-25.1559	43.0745	99.2252	-30.5303	19.9488	82.8874	-36.1058	-4.81883	72.432	-43.6023	-25.651	134.053	-12.7782	-35.0714	130.15	-16.7387	-63.812	125.885	-19.1071	-88.4326	163.882	-20.3476	-41.0129	162.166	-26.2197	-69.6059	162.208	-39.5343	-101.505	183.009	-32.0702	-32.9148	187.336	-36.9199	-57.2371	184.293	-43.8805	-81.0892	195.503	-46.1293	-12.5	203.64	-53.0331	-32.8944	213.969	-63.6725	-55.9181	180.755	-17.986	16.7948	182.693	-18.1234	50.9025	150.073	-6.59265	32.7851	
8	0.0666667	121.187	-26.0323	37.9723	99.1721	-31.0787	20.2264	85.2414	-36.8726	-3.43914	73.2918	-44.6556	-23.6281	135.794	-14.1288	-36.3107	129.166	-15.0255	-62.1744	127.461	-18.7976	-83.8411	164.728	-19.9284	-39.6363	163.193	-27.2157	-71.6239	159.93	-36.7506	-95.9858	179.792	-29.9213	-29.2462	183.987	-35.1137	-54.8641	185.602	-45.6519	-83.8022	197.313	-46.2567	-14.1351	202.947	-53.4044	-35.8538	213.654	-64.776	-52.8169	184.747	-19.5302	18.539	185.704	-19.7677	47.8546	153.138	-8.86927	33.6152	
9	0.075	118.798	-25.0561	43.0131	98.9975	-32.2088	19.4866	84.1949	-36.8049	-3.66554	73.4119	-43.8396	-25.6849	137.722	-13.9414	-35.887	127.535	-14.812	-58.2755	125.777	-19.6563	-86.2619	161.719	-18.0359	-42.1335	162.493	-26.4022	-71.0905	159.005	-35.5375	-96.8093	180.511	-30.0071	-29.1017	182.716	-34.5186	-54.8143	183.567	-45.0348	-81.8673	199.173	-46.9763	-13.7172	204.144	-53.2871	-34.8038	210.612	-61.0338	-55.4189	178.768	-20.1276	21.1309	184.921	-20.3596	47.0708	154.992	-7.80359	34.6978	
10	0.0833333	121.607	-25.3201	39.8679	97.7387	-30.3252	17.5152	81.6822	-36.646	-5.43727	74.4259	-44.2118	-26.9913	135.895	-12.7176	-31.8713	127.455	-14.5012	-62.097	129.238	-18.5246	-83.7565	163.697	-19.6376	-40.9282	164.909	-25.5042	-67.1795	160.529	-37.0766	-96.6314	182.231	-30.5311	-32.6062	184.198	-34.919	-55.5243	183.942	-45.5264	-81.5646	199.315	-47.8574	-13.7909	203.735	-53.2801	-34.882	211.05	-63.2463	-58.5811	179.354	-19.8113	22.8872	184.262	-18.5268	51.1287	153.447	-9.72716	35.1038	
11	0.0916667	120.042	-26.0951	44.2044	103.131	-31.681	19.2477	84.0274	-36.497	-9.15017	73.4402	-43.5268	-29.0049	134.386	-11.9594	-34.1004	130.464	-13.5974	-61.4546	127.256	-17.4998	-86.3787	161.047	-17.9956	-37.8459	163.111	-24.8794	-69.0152	157.137	-35.7694	-97.7289	181.291	-29.4344	-32.0159	184.4	-35.4489	-55.4476	181.478	-46.645	-83.5306	195.868	-44.554	-18.2062	205.068	-53.6174	-38.1011	210.768	-65.0491	-57.2691	181.87	-19.8748	17.8057	183.588	-19.3192	49.448	149.928	-8.09193	31.0956	
